<svg width="25" height="30" viewBox="0 0 25 30" fill="none" xmlns="http://www.w3.org/2000/svg">
<path fill-rule="evenodd" clip-rule="evenodd" d="M24.5 11.5906C24.5 5.18878 19.1281 0 12.5 0C5.87206 0 0.5 5.18867 0.5 11.5906C0.5 16.8174 6.10404 23.4097 10.3287 28.3793C10.8068 28.9418 11.7 30 11.7 30H13.3C13.7324 29.4838 14.1926 28.9426 14.6704 28.3805C18.8949 23.4112 24.5 16.8178 24.5 11.5906ZM12.5003 19.4978C17.1395 19.4978 20.9003 15.9033 20.9003 11.4693C20.9003 7.03524 17.1395 3.44074 12.5003 3.44074C7.86107 3.44074 4.10026 7.03524 4.10026 11.4693C4.10026 15.9033 7.86107 19.4978 12.5003 19.4978Z" fill="#FF6150"/>
</svg>
