<svg width="24" height="24" viewBox="0 0 24 24" fill="none" xmlns="http://www.w3.org/2000/svg">
<path d="M18.8571 12C18.8571 15.7871 15.7871 18.8571 12 18.8571C8.2129 18.8571 5.14286 15.7871 5.14286 12C5.14286 8.2129 8.2129 5.14286 12 5.14286C15.7871 5.14286 18.8571 8.2129 18.8571 12Z" fill="#AAB2BD"/>
<path fill-rule="evenodd" clip-rule="evenodd" d="M12 24C18.6274 24 24 18.6274 24 12C24 5.37258 18.6274 0 12 0C5.37258 0 0 5.37258 0 12C0 18.6274 5.37258 24 12 24ZM22.2857 12C22.2857 17.6806 17.6806 22.2857 12 22.2857C6.31936 22.2857 1.71429 17.6806 1.71429 12C1.71429 6.31936 6.31936 1.71429 12 1.71429C17.6806 1.71429 22.2857 6.31936 22.2857 12Z" fill="#AAB2BD"/>
</svg>
