<svg width="98" height="24" viewBox="0 0 98 24" fill="none" xmlns="http://www.w3.org/2000/svg">
<path fill-rule="evenodd" clip-rule="evenodd" d="M5.15968 20.6985C3.58498 20.6985 2.33171 20.1347 1.39893 19.0062C0.466634 17.8787 0 16.2715 0 14.1865C0 13.1779 0.149556 12.268 0.449154 11.4561C0.748751 10.6442 1.14643 9.95616 1.64269 9.39241C2.11988 8.84281 2.7054 8.39763 3.36258 8.08477C4.00405 7.77912 4.70599 7.62147 5.41655 7.62347C6.1352 7.62347 6.75964 7.75118 7.28989 8.00756C7.82062 8.26394 8.3596 8.61452 8.90684 9.05882L8.80487 6.93105V2.13651H10.9351V20.3911H9.18944L9.00978 18.9295H8.93258C8.42192 19.4185 7.84785 19.8366 7.22579 20.1726C6.59304 20.5208 5.88191 20.7018 5.15968 20.6985ZM5.62146 18.9295C6.19618 18.9313 6.76177 18.7857 7.26415 18.5066C7.77789 18.2245 8.29113 17.7928 8.80438 17.2116V10.7001C8.27414 10.2213 7.76526 9.88332 7.27726 9.68715C6.80043 9.49258 6.29039 9.39232 5.77539 9.39192C5.28779 9.38993 4.8073 9.50889 4.37694 9.73814C3.93993 9.96878 3.55924 10.2936 3.23439 10.7127C2.90906 11.1312 2.65268 11.6314 2.46428 12.2121C2.27587 12.7934 2.18167 13.443 2.18167 14.1607C2.18167 15.665 2.48127 16.8357 3.07998 17.6733C3.67918 18.511 4.5265 18.9295 5.62146 18.9295ZM20.2017 20.6985C19.3631 20.6985 18.5799 20.5489 17.853 20.2498C17.1378 19.9588 16.4909 19.5223 15.9535 18.9679C15.4145 18.4124 14.9906 17.7331 14.6827 16.9299C14.3749 16.1263 14.2204 15.212 14.2204 14.1865C14.2204 13.1609 14.3787 12.2422 14.6953 11.4304C15.0119 10.6185 15.4315 9.93042 15.953 9.36668C16.4754 8.80244 17.0698 8.37125 17.7374 8.07166C18.3906 7.77561 19.0995 7.62263 19.8167 7.62299C20.6033 7.62299 21.3093 7.75992 21.9338 8.0333C22.5429 8.29504 23.08 8.69959 23.4997 9.21275C23.9193 9.72551 24.2402 10.3407 24.4626 11.0584C24.685 11.7766 24.7962 12.5797 24.7962 13.4688C24.7962 13.6907 24.7918 13.9087 24.7836 14.1224C24.7748 14.336 24.7535 14.5196 24.719 14.6735H16.2997C16.3851 16.0069 16.8003 17.0625 17.5447 17.8399C18.2891 18.6178 19.2602 19.0062 20.4581 19.0062C21.0573 19.0062 21.6089 18.9169 22.1139 18.7372C22.6189 18.5576 23.102 18.3226 23.5643 18.0322L24.3087 19.4165C23.7311 19.7732 23.1207 20.0736 22.4858 20.3139C21.8187 20.5703 21.0573 20.6985 20.2017 20.6985ZM16.2739 13.1609H22.9481C22.9481 11.896 22.6786 10.9346 22.1396 10.2766C21.6007 9.61869 20.8432 9.28947 19.8676 9.28947C19.4229 9.28947 18.9994 9.37493 18.5974 9.54585C18.1868 9.72259 17.8158 9.97983 17.5063 10.3024C17.181 10.6355 16.9115 11.0414 16.6978 11.5202C16.4842 11.9985 16.3424 12.5457 16.2739 13.1609ZM30.1103 20.6985C29.3057 20.6985 28.7327 20.4591 28.3904 19.9808C28.0481 19.502 27.8771 18.8013 27.8771 17.8783V2.13651H29.9816V18.0322C29.9816 18.374 30.0418 18.6134 30.1613 18.7499C30.2812 18.8868 30.4186 18.9553 30.5721 18.9553H30.7648C30.8246 18.9553 30.9144 18.9383 31.0343 18.9038L31.3165 20.4935C31.1795 20.5615 31.0173 20.613 30.8289 20.6475C30.6405 20.6815 30.4012 20.6985 30.1103 20.6985ZM34.4222 20.3911V7.93084H36.5276V20.3906H34.4222V20.3911ZM59.3903 20.6985C58.5512 20.6985 57.7685 20.5489 57.0411 20.2498C56.3258 19.9588 55.6789 19.5223 55.1415 18.9679C54.6025 18.4124 54.1791 17.7331 53.8713 16.9299C53.5629 16.1263 53.409 15.212 53.409 14.1865C53.409 13.1609 53.5673 12.2422 53.8839 11.4304C54.2005 10.6185 54.62 9.93042 55.1415 9.36668C55.6635 8.80244 56.2583 8.37125 56.9255 8.07166C57.5787 7.77561 58.2876 7.62263 59.0047 7.62299C59.7923 7.62299 60.4978 7.75992 61.1228 8.0333C61.7317 8.29511 62.2687 8.69965 62.6883 9.21275C63.1078 9.72551 63.4288 10.3407 63.6512 11.0584C63.8735 11.7766 63.9847 12.5797 63.9847 13.4688C63.9847 13.6907 63.9804 13.9087 63.9716 14.1224C63.9634 14.336 63.942 14.5196 63.9075 14.6735H55.4882C55.5737 16.0069 55.9888 17.0625 56.7332 17.8399C57.4776 18.6178 58.4487 19.0062 59.6466 19.0062C60.2454 19.0062 60.7974 18.9169 61.3024 18.7372C61.8074 18.5576 62.2906 18.3226 62.7524 18.0322L63.4972 19.4165C62.9197 19.7732 62.3093 20.0736 61.6744 20.3139C61.0072 20.5703 60.2454 20.6985 59.3898 20.6985H59.3903ZM55.4625 13.1609H62.1367C62.1367 11.896 61.8672 10.9346 61.3282 10.2766C60.7892 9.61869 60.0317 9.28947 59.0562 9.28947C58.6114 9.28947 58.188 9.37493 57.7854 9.54585C57.375 9.72265 57.0042 9.97988 56.6949 10.3024C56.3695 10.6355 56.1 11.0414 55.8864 11.5202C55.6722 11.9985 55.5309 12.5457 55.4625 13.1609ZM67.0652 20.3911V7.93084H68.8104L68.99 10.1868H69.0672C69.4945 9.40067 70.0126 8.77671 70.6201 8.31541C71.2275 7.85412 71.8908 7.62299 72.6095 7.62299C73.1057 7.62299 73.5505 7.70845 73.9443 7.87937L73.5335 9.72551C73.3486 9.66265 73.16 9.61124 72.9688 9.57159C72.7571 9.53392 72.5423 9.51668 72.3273 9.52012C71.7966 9.52012 71.2445 9.73377 70.6715 10.1611C70.0986 10.5884 69.5975 11.3323 69.1697 12.3918V20.3911H67.0652ZM80.7724 20.6985C79.9338 20.6985 79.1506 20.5489 78.4237 20.2498C77.7085 19.9588 77.0616 19.5223 76.5241 18.9679C75.9852 18.4124 75.5613 17.7331 75.2534 16.9299C74.9455 16.1263 74.7911 15.212 74.7911 14.1865C74.7911 13.1609 74.9494 12.2422 75.266 11.4304C75.5826 10.6185 76.0022 9.93042 76.5237 9.36668C77.0461 8.80244 77.6405 8.37125 78.3081 8.07166C78.9613 7.77561 79.6702 7.62263 80.3874 7.62299C81.174 7.62299 81.8805 7.75992 82.5044 8.0333C83.1137 8.29497 83.651 8.69953 84.0709 9.21275C84.4899 9.72551 84.8109 10.3407 85.0333 11.0584C85.2557 11.7766 85.3669 12.5797 85.3669 13.4688C85.3669 13.6907 85.3625 13.9087 85.3543 14.1224C85.3455 14.336 85.3242 14.5196 85.2902 14.6735H76.8704C76.9563 16.0069 77.371 17.0625 78.1154 17.8399C78.8597 18.6178 79.8309 19.0062 81.0288 19.0062C81.628 19.0062 82.1796 18.9169 82.6846 18.7372C83.1896 18.5576 83.6727 18.3226 84.135 18.0322L84.8794 19.4165C84.3018 19.7732 83.6914 20.0736 83.0565 20.3139C82.3894 20.5703 81.628 20.6985 80.7724 20.6985ZM76.8451 13.1609H83.5183C83.5183 11.896 83.2488 10.9346 82.7098 10.2766C82.1709 9.61869 81.4134 9.28947 80.4379 9.28947C79.9931 9.28947 79.5696 9.37493 79.1676 9.54585C78.757 9.72259 78.386 9.97983 78.0765 10.3024C77.7512 10.6355 77.4817 11.0414 77.268 11.5202C77.0544 11.9985 76.9126 12.5457 76.8446 13.1609H76.8451ZM90.9626 20.6985C89.9186 20.6985 89.0504 20.3911 88.3575 19.7759C87.6641 19.1602 87.3179 18.2886 87.3179 17.1606C87.3179 15.7932 87.9249 14.7463 89.1403 14.0199C90.3552 13.2935 92.2974 12.7851 94.9671 12.4942C94.9671 12.1009 94.9283 11.7168 94.8516 11.3405C94.7827 10.9852 94.6477 10.6461 94.4534 10.3407C94.2655 10.0504 94.0047 9.81534 93.6706 9.63568C93.3371 9.45602 92.9136 9.36668 92.4004 9.36668C91.6817 9.36668 91.0058 9.50312 90.3726 9.7765C89.7395 10.0504 89.1747 10.3577 88.678 10.6996L87.8569 9.238C88.4386 8.86217 89.1485 8.49896 89.9876 8.14886C90.8257 7.79828 91.7502 7.62299 92.7597 7.62299C94.2825 7.62299 95.3867 8.08914 96.0713 9.02046C96.7555 9.95179 97.0978 11.1953 97.0978 12.7506V20.3911H95.3522L95.172 18.9033H95.0948C94.5015 19.3954 93.856 19.821 93.17 20.1726C92.487 20.5226 91.7296 20.7028 90.9621 20.698L90.9626 20.6985ZM91.5793 19.0062C92.178 19.0062 92.7427 18.8654 93.273 18.5838C93.8037 18.3012 94.3684 17.887 94.9676 17.3398V13.8786C93.9236 14.0155 93.0462 14.1777 92.3358 14.3661C91.6259 14.554 91.0524 14.7759 90.6164 15.0323C90.1799 15.2887 89.8638 15.5839 89.6666 15.917C89.4708 16.2466 89.3688 16.6233 89.3714 17.0067C89.3714 17.7243 89.585 18.2371 90.0128 18.545C90.4411 18.8528 90.9626 19.0062 91.5788 19.0062H91.5793ZM49.975 8.11876C49.4118 10.0941 47.9303 13.1852 45.5296 17.2752C43.1299 13.1852 41.648 10.0941 41.0852 8.11876H39.105C39.7411 10.8098 41.8806 15.1003 45.5296 21C49.1797 15.1003 51.3186 10.8098 51.9552 8.11876H49.9745H49.975ZM45.5296 1.92286C47.9104 1.92286 49.8726 3.69034 50.1863 5.98224H52.1285C51.8056 2.62549 48.9752 0 45.5296 0C42.084 0 39.2536 2.62549 38.9312 5.98224H40.8725C41.1867 3.69034 43.1493 1.92286 45.5301 1.92286" fill="#53ABF6"/>
<path opacity="0.5" d="M45.563 8.54592C46.6263 8.54592 47.4883 7.68503 47.4883 6.62306C47.4883 5.56109 46.6263 4.7002 45.563 4.7002C44.4997 4.7002 43.6377 5.56109 43.6377 6.62306C43.6377 7.68503 44.4997 8.54592 45.563 8.54592Z" fill="#53ABF6"/>
</svg>
