<svg width="81" height="80" viewBox="0 0 81 80" fill="none" xmlns="http://www.w3.org/2000/svg">
<path fill-rule="evenodd" clip-rule="evenodd" d="M60.4999 57.2167C59.9789 58.245 59.0208 58.245 58.4999 57.3101C49.8489 41.0467 48.4999 36.5 49.8307 36H55.4998C55.4998 24.9548 57.4998 9.5 63.4998 8C63.4998 10.53 63.4999 25.4602 63.4998 36H69.322C70.5727 36.9349 65.7201 46.9136 60.4999 57.2167Z" fill="#54D1D1"/>
<path fill-rule="evenodd" clip-rule="evenodd" d="M49.4542 36.3815C42.7745 39.2001 34.8388 38.761 28.5001 35C28.5 34.9877 28.5 35.353 28.5 35.8582V33C35.7385 37.7721 45.1929 38.0574 52.4314 33.2853C52.4742 33.257 52.5 33.2092 52.5 33.1578V30.8667C45.1021 35.2561 35.8979 35.2561 28.5 30.8667L28.5 33V29.45C35.8482 33.81 45.0712 33.6921 52.4195 29.3321C52.4694 29.3025 52.5 29.2487 52.5 29.1906V26.3287C45.2199 31.1282 35.7801 31.1282 28.5 26.3287L28.5 29.4395C26.9527 29.1068 25.2498 28.9 23.5 28.9C17.1959 28.9 11.5 31.5845 11.5 33.1643C11.5 34.7441 17.1959 37.4286 23.5 37.4286C25.2498 37.4286 26.9527 37.2218 28.5 36.8892C28.5 37.0204 28.5 37.1513 28.5 37.2792L28.5 38C22.7637 39.3235 16.6016 38.3986 11.5 35.1024V38.8873C11.5 38.9442 11.5306 38.9969 11.5806 39.0259C16.749 42.0313 22.805 42.9229 28.5 41.7006L28.5 40.36V45.3C35.7515 49.6026 45.4604 50.2203 52.76 46.034C52.028 44.4443 51.3528 43.0868 50.9 41.9323C44.0187 45.0848 34.8718 44.5607 28.5 40.36V38C34.9611 42.2596 43.1733 42.9214 50 39.5799C49.4746 37.8723 49.2398 36.8839 49.4542 36.3815ZM40.5 27.7023C46.8041 27.7023 52.5 24.9631 52.5 23.3511C52.5 21.7392 46.8041 19 40.5 19C34.1959 19 28.5 21.7392 28.5 23.3511C28.5 24.9631 34.1959 27.7023 40.5 27.7023ZM52.5 59.8913V56.0179C45.2199 60.8174 35.7801 60.8174 28.5 56.0179C28.5 56.4538 28.5 56.8898 28.5 57.3257C28.5001 58.2126 28.5001 59.0995 28.5 59.9864C22.8635 61.214 16.863 60.3397 11.745 57.3636C11.6369 57.3008 11.5 57.3771 11.5 57.5004V62.5567C11.5 62.6136 11.5306 62.6663 11.5806 62.6953C16.749 65.7007 22.805 66.5923 28.5 65.3699V59.9864C35.7385 64.7585 45.1929 64.7908 52.4314 60.0187C52.4742 59.9905 52.5 59.9426 52.5 59.8913ZM52.5 64.347C45.2199 69.1465 35.7801 68.1465 28.5 63.347V66.9793C28.5 67.1811 28.6014 67.3694 28.7699 67.4805C35.8863 72.1721 45.1137 72.1721 52.2301 67.4805C52.3986 67.3694 52.5 67.1811 52.5 66.9793V64.347ZM28.5 49L28.5 53.5C35.8483 57.86 45.0712 57.8434 52.4195 53.4834C52.4694 53.4538 52.5 53.4 52.5 53.342V49.1827C52.5 49.057 52.3631 48.979 52.255 49.0432C45.0081 53.343 35.7469 53.2998 28.5 49ZM28.5 43.2298C22.7763 44.4497 16.6931 43.5497 11.5 40.5299V42.7753C11.5 42.8256 11.5258 42.8726 11.5686 42.9002C16.6495 46.183 22.7884 47.1616 28.5 45.8358V43.2298ZM28.5 47.1718C22.8635 48.3993 16.863 47.5251 11.745 44.549C11.6369 44.4861 11.5 44.5625 11.5 44.6857V48.2026C11.5 48.2529 11.5258 48.2998 11.5686 48.3275C16.6495 51.6103 22.7884 52.5888 28.5 51.263V47.1718ZM28.5 52.964C22.7083 54.0185 16.362 52.9751 11.5 49.8337V54.5986C11.5 54.6555 11.5306 54.7082 11.5806 54.7373C16.6748 57.6996 22.7849 58.8491 28.5 57.8483V52.964Z" fill="white"/>
</svg>
