<svg width="81" height="80" viewBox="0 0 81 80" fill="none" xmlns="http://www.w3.org/2000/svg">
<path d="M75.4005 27.3002C76.2324 27.0345 76.6911 26.1441 76.4253 25.3105L74.8645 20.4381C74.5987 19.6062 73.7067 19.1458 72.8756 19.4115L69.692 20.433C68.9615 19.3032 68.0991 18.2927 67.1292 17.4073L68.6601 14.4308C69.062 13.6564 68.7556 12.6992 67.9795 12.3014L63.4297 9.95886C62.6545 9.55853 61.6981 9.86153 61.3004 10.6385L59.7671 13.6159C58.4849 13.3408 57.1587 13.2265 55.8189 13.2849L54.8024 10.1026C54.5357 9.2664 53.6437 8.80937 52.811 9.07598L47.9372 10.6324C47.1061 10.899 46.6475 11.7927 46.9107 12.6213L47.9323 15.8086C46.8043 16.539 45.7921 17.4015 44.9069 18.3696L41.9345 16.8369C41.1576 16.434 40.2047 16.7421 39.8044 17.519L37.4621 22.0655C37.0593 22.8441 37.3666 23.798 38.1444 24.1974L41.1158 25.7301C40.8417 27.0124 40.7267 28.3403 40.786 29.6793L37.6014 30.6974C36.7704 30.9657 36.3092 31.8552 36.5775 32.6889L38.1357 37.5603C38.4015 38.3914 39.2918 38.8527 40.1254 38.5869L43.31 37.5679C44.0396 38.6927 44.9003 39.7058 45.871 40.5928L44.3402 43.5626C43.9399 44.3412 44.2446 45.2942 45.0207 45.6971L49.5697 48.0396C50.3466 48.44 51.3012 48.1327 51.6998 47.3575L53.2306 44.3851C54.5145 44.6593 55.8407 44.7719 57.1796 44.7143L58.1978 47.8982C58.4662 48.7293 59.3565 49.1905 60.1867 48.9248L65.0588 47.3658C65.8932 47.1001 66.3493 46.2097 66.0861 45.3744L65.0653 42.1929C66.1909 41.4625 67.2038 40.6001 68.0908 39.6293L71.0649 41.1646C71.8392 41.5641 72.7947 41.2569 73.195 40.4799L75.5366 35.9326C75.936 35.1556 75.6338 34.2026 74.8561 33.8006L71.882 32.2705C72.1553 30.9857 72.2703 29.6621 72.2127 28.3222L75.4005 27.3002ZM59.0427 36.94C54.659 38.3424 49.9635 35.9236 48.5626 31.5421C47.1576 27.152 49.5778 22.4608 53.9625 21.0592C58.3497 19.6543 63.0451 22.0723 64.4443 26.4589C65.8468 30.8414 63.4291 35.5367 59.0427 36.94Z" fill="#54D1D1"/>
<path fill-rule="evenodd" clip-rule="evenodd" d="M63.5 47.8646V59.6144C63.5 62.036 61.5715 63.999 59.1925 63.999H13.8075C11.4285 63.999 9.5 62.036 9.5 59.6144V30.3836C9.5 27.9621 11.4285 25.999 13.8075 25.999H41.0608C40.8741 26.9543 40.7754 27.9334 40.7709 28.9221H13.8075C13.0145 28.9221 12.3716 29.5765 12.3716 30.3836V59.6144C12.3716 60.4216 13.0145 61.0759 13.8075 61.0759H59.1925C59.9855 61.0759 60.6284 60.4216 60.6284 59.6144V48.7835L63.5 47.8646ZM4.5 69C4.5 67.8954 5.39543 67 6.5 67H66.5C67.6046 67 68.5 67.8954 68.5 69C68.5 70.1046 67.6046 71 66.5 71H6.5C5.39543 71 4.5 70.1046 4.5 69Z" fill="white"/>
</svg>
