<svg width="81" height="80" viewBox="0 0 81 80" fill="none" xmlns="http://www.w3.org/2000/svg">
<path fill-rule="evenodd" clip-rule="evenodd" d="M28.5 12H61.5V58C61.5 63.5228 57.0228 68 51.5 68H18.5V22C18.5 16.4772 22.9772 12 28.5 12ZM16.5 22C16.5 15.3726 21.8726 10 28.5 10H61.5H63.5V12V58C63.5 64.6274 58.1274 70 51.5 70H18.5H16.5V68V22ZM26.5 48C25.9477 48 25.5 48.4477 25.5 49C25.5 49.5523 25.9477 50 26.5 50H54.5C55.0523 50 55.5 49.5523 55.5 49C55.5 48.4477 55.0523 48 54.5 48H26.5ZM25.5 54C25.5 53.4477 25.9477 53 26.5 53H54.5C55.0523 53 55.5 53.4477 55.5 54C55.5 54.5523 55.0523 55 54.5 55H26.5C25.9477 55 25.5 54.5523 25.5 54ZM26.5 58C25.9477 58 25.5 58.4477 25.5 59C25.5 59.5523 25.9477 60 26.5 60H54.5C55.0523 60 55.5 59.5523 55.5 59C55.5 58.4477 55.0523 58 54.5 58H26.5Z" fill="white"/>
<path fill-rule="evenodd" clip-rule="evenodd" d="M40.5 41C46.5751 41 51.5 36.0751 51.5 30C51.5 23.9249 46.5751 19 40.5 19C34.4249 19 29.5 23.9249 29.5 30C29.5 36.0751 34.4249 41 40.5 41ZM46.1344 25.8501C46.6244 26.2314 46.6906 26.9114 46.2823 27.3689L39.8429 34.5835L35.5144 31.8893C34.9837 31.5589 34.8403 30.8894 35.1941 30.3939C35.5479 29.8983 36.265 29.7644 36.7958 30.0948L39.3972 31.714L44.5077 25.9882C44.9161 25.5307 45.6444 25.4689 46.1344 25.8501Z" fill="#54D1D1"/>
</svg>
