<svg width="500" height="500" viewBox="0 0 500 500" fill="none" xmlns="http://www.w3.org/2000/svg">
<rect width="500" height="500" fill="white"/>
<path fill-rule="evenodd" clip-rule="evenodd" d="M351.431 195.572C338.556 240.721 304.694 311.376 249.821 404.861C194.971 311.376 161.098 240.721 148.234 195.572H102.973C117.513 257.081 166.414 355.15 249.821 490C333.251 355.15 382.141 257.081 396.691 195.572H351.419H351.431ZM249.821 53.9512C304.239 53.9512 349.089 94.3507 356.259 146.737H400.654C393.273 70.0111 328.578 10 249.821 10C171.064 10 106.37 70.0111 99 146.737H143.373C150.554 94.3507 195.415 53.9512 249.832 53.9512" fill="#53ABF6"/>
<path opacity="0.5" d="M250.576 205.338C274.88 205.338 294.582 185.661 294.582 161.387C294.582 137.113 274.88 117.436 250.576 117.436C226.271 117.436 206.569 137.113 206.569 161.387C206.569 185.661 226.271 205.338 250.576 205.338Z" fill="#53ABF6"/>
</svg>
